<svg id="visual" viewBox="0 0 960 540" width="960" height="540" xmlns="http://www.w3.org/2000/svg" xmlns:xlink="http://www.w3.org/1999/xlink" version="1.1"><rect x="0" y="0" width="960" height="540" fill="#8dadb1"></rect><path d="M0 413L60 427L120 442L180 409L240 449L300 434L360 420L420 432L480 416L540 450L600 410L660 439L720 420L780 436L840 438L900 418L960 436L960 541L900 541L840 541L780 541L720 541L660 541L600 541L540 541L480 541L420 541L360 541L300 541L240 541L180 541L120 541L60 541L0 541Z" fill="#0a62f5"></path><path d="M0 434L60 457L120 437L180 421L240 467L300 463L360 433L420 465L480 425L540 420L600 453L660 440L720 427L780 449L840 447L900 446L960 425L960 541L900 541L840 541L780 541L720 541L660 541L600 541L540 541L480 541L420 541L360 541L300 541L240 541L180 541L120 541L60 541L0 541Z" fill="#0e57e7"></path><path d="M0 470L60 462L120 465L180 464L240 465L300 466L360 439L420 450L480 436L540 462L600 463L660 466L720 476L780 441L840 449L900 454L960 452L960 541L900 541L840 541L780 541L720 541L660 541L600 541L540 541L480 541L420 541L360 541L300 541L240 541L180 541L120 541L60 541L0 541Z" fill="#104bd9"></path><path d="M0 478L60 468L120 467L180 481L240 452L300 482L360 452L420 477L480 476L540 447L600 447L660 453L720 455L780 457L840 474L900 479L960 457L960 541L900 541L840 541L780 541L720 541L660 541L600 541L540 541L480 541L420 541L360 541L300 541L240 541L180 541L120 541L60 541L0 541Z" fill="#1040cb"></path><path d="M0 482L60 471L120 484L180 479L240 494L300 460L360 466L420 476L480 476L540 466L600 476L660 491L720 485L780 488L840 482L900 473L960 461L960 541L900 541L840 541L780 541L720 541L660 541L600 541L540 541L480 541L420 541L360 541L300 541L240 541L180 541L120 541L60 541L0 541Z" fill="#0f35bd"></path><path d="M0 494L60 494L120 483L180 502L240 497L300 479L360 482L420 503L480 502L540 474L600 493L660 483L720 474L780 478L840 476L900 497L960 479L960 541L900 541L840 541L780 541L720 541L660 541L600 541L540 541L480 541L420 541L360 541L300 541L240 541L180 541L120 541L60 541L0 541Z" fill="#0d29af"></path><path d="M0 494L60 506L120 489L180 496L240 495L300 511L360 497L420 498L480 506L540 495L600 504L660 507L720 498L780 510L840 500L900 508L960 512L960 541L900 541L840 541L780 541L720 541L660 541L600 541L540 541L480 541L420 541L360 541L300 541L240 541L180 541L120 541L60 541L0 541Z" fill="#0a1ea2"></path><path d="M0 518L60 518L120 510L180 510L240 505L300 513L360 508L420 506L480 514L540 521L600 514L660 515L720 507L780 502L840 511L900 507L960 511L960 541L900 541L840 541L780 541L720 541L660 541L600 541L540 541L480 541L420 541L360 541L300 541L240 541L180 541L120 541L60 541L0 541Z" fill="#061094"></path><path d="M0 522L60 526L120 523L180 516L240 521L300 525L360 527L420 528L480 521L540 515L600 524L660 519L720 525L780 528L840 519L900 524L960 525L960 541L900 541L840 541L780 541L720 541L660 541L600 541L540 541L480 541L420 541L360 541L300 541L240 541L180 541L120 541L60 541L0 541Z" fill="#020087"></path></svg>