<svg id="visual" viewBox="0 0 1700 600" width="1700" height="600" xmlns="http://www.w3.org/2000/svg" xmlns:xlink="http://www.w3.org/1999/xlink" version="1.1"><path d="M0 228L40.5 228.3C81 228.7 162 229.3 243 224.2C324 219 405 208 486 198C567 188 648 179 728.8 179C809.7 179 890.3 188 971.2 186.7C1052 185.3 1133 173.7 1214 174.7C1295 175.7 1376 189.3 1457 193.3C1538 197.3 1619 191.7 1659.5 188.8L1700 186L1700 0L1659.5 0C1619 0 1538 0 1457 0C1376 0 1295 0 1214 0C1133 0 1052 0 971.2 0C890.3 0 809.7 0 728.8 0C648 0 567 0 486 0C405 0 324 0 243 0C162 0 81 0 40.5 0L0 0Z" fill="#698afa"></path><path d="M0 141L40.5 145.8C81 150.7 162 160.3 243 164C324 167.7 405 165.3 486 161.5C567 157.7 648 152.3 728.8 153C809.7 153.7 890.3 160.3 971.2 168.8C1052 177.3 1133 187.7 1214 183.3C1295 179 1376 160 1457 151.5C1538 143 1619 145 1659.5 146L1700 147L1700 0L1659.5 0C1619 0 1538 0 1457 0C1376 0 1295 0 1214 0C1133 0 1052 0 971.2 0C890.3 0 809.7 0 728.8 0C648 0 567 0 486 0C405 0 324 0 243 0C162 0 81 0 40.5 0L0 0Z" fill="#5473e0"></path><path d="M0 150L40.5 151.5C81 153 162 156 243 149.3C324 142.7 405 126.3 486 125C567 123.7 648 137.3 728.8 139.2C809.7 141 890.3 131 971.2 132C1052 133 1133 145 1214 150.7C1295 156.3 1376 155.7 1457 151.7C1538 147.7 1619 140.3 1659.5 136.7L1700 133L1700 0L1659.5 0C1619 0 1538 0 1457 0C1376 0 1295 0 1214 0C1133 0 1052 0 971.2 0C890.3 0 809.7 0 728.8 0C648 0 567 0 486 0C405 0 324 0 243 0C162 0 81 0 40.5 0L0 0Z" fill="#3e5dc6"></path><path d="M0 68L40.5 66C81 64 162 60 243 65.3C324 70.7 405 85.3 486 93.2C567 101 648 102 728.8 102C809.7 102 890.3 101 971.2 99.3C1052 97.7 1133 95.3 1214 96C1295 96.7 1376 100.3 1457 100.8C1538 101.3 1619 98.7 1659.5 97.3L1700 96L1700 0L1659.5 0C1619 0 1538 0 1457 0C1376 0 1295 0 1214 0C1133 0 1052 0 971.2 0C890.3 0 809.7 0 728.8 0C648 0 567 0 486 0C405 0 324 0 243 0C162 0 81 0 40.5 0L0 0Z" fill="#2648ad"></path><path d="M0 37L40.5 40.3C81 43.7 162 50.3 243 54C324 57.7 405 58.3 486 60.3C567 62.3 648 65.7 728.8 63.3C809.7 61 890.3 53 971.2 53.2C1052 53.3 1133 61.7 1214 61.8C1295 62 1376 54 1457 47C1538 40 1619 34 1659.5 31L1700 28L1700 0L1659.5 0C1619 0 1538 0 1457 0C1376 0 1295 0 1214 0C1133 0 1052 0 971.2 0C890.3 0 809.7 0 728.8 0C648 0 567 0 486 0C405 0 324 0 243 0C162 0 81 0 40.5 0L0 0Z" fill="#003394"></path></svg>