<svg id="visual" viewBox="0 0 2500 600" width="2500" height="600" xmlns="http://www.w3.org/2000/svg" xmlns:xlink="http://www.w3.org/1999/xlink" version="1.1"><path d="M0 188L59.5 189.5C119 191 238 194 357 193.3C476 192.7 595 188.3 714 194C833 199.7 952 215.3 1071.2 216.5C1190.3 217.7 1309.7 204.3 1428.8 202.8C1548 201.3 1667 211.7 1786 210.8C1905 210 2024 198 2143 193.3C2262 188.7 2381 191.3 2440.5 192.7L2500 194L2500 0L2440.5 0C2381 0 2262 0 2143 0C2024 0 1905 0 1786 0C1667 0 1548 0 1428.8 0C1309.7 0 1190.3 0 1071.2 0C952 0 833 0 714 0C595 0 476 0 357 0C238 0 119 0 59.5 0L0 0Z" fill="#698afa"></path><path d="M0 139L59.5 149.8C119 160.7 238 182.3 357 183C476 183.7 595 163.3 714 158.8C833 154.3 952 165.7 1071.2 164.8C1190.3 164 1309.7 151 1428.8 148.3C1548 145.7 1667 153.3 1786 153.8C1905 154.3 2024 147.7 2143 143.7C2262 139.7 2381 138.3 2440.5 137.7L2500 137L2500 0L2440.5 0C2381 0 2262 0 2143 0C2024 0 1905 0 1786 0C1667 0 1548 0 1428.8 0C1309.7 0 1190.3 0 1071.2 0C952 0 833 0 714 0C595 0 476 0 357 0C238 0 119 0 59.5 0L0 0Z" fill="#5473e0"></path><path d="M0 89L59.5 100.7C119 112.3 238 135.7 357 143.5C476 151.3 595 143.7 714 135.8C833 128 952 120 1071.2 114C1190.3 108 1309.7 104 1428.8 107.7C1548 111.3 1667 122.7 1786 130.8C1905 139 2024 144 2143 144.5C2262 145 2381 141 2440.5 139L2500 137L2500 0L2440.5 0C2381 0 2262 0 2143 0C2024 0 1905 0 1786 0C1667 0 1548 0 1428.8 0C1309.7 0 1190.3 0 1071.2 0C952 0 833 0 714 0C595 0 476 0 357 0C238 0 119 0 59.5 0L0 0Z" fill="#3e5dc6"></path><path d="M0 95L59.5 93.3C119 91.7 238 88.3 357 89.2C476 90 595 95 714 98C833 101 952 102 1071.2 99.8C1190.3 97.7 1309.7 92.3 1428.8 94.3C1548 96.3 1667 105.7 1786 105.8C1905 106 2024 97 2143 95C2262 93 2381 98 2440.5 100.5L2500 103L2500 0L2440.5 0C2381 0 2262 0 2143 0C2024 0 1905 0 1786 0C1667 0 1548 0 1428.8 0C1309.7 0 1190.3 0 1071.2 0C952 0 833 0 714 0C595 0 476 0 357 0C238 0 119 0 59.5 0L0 0Z" fill="#2648ad"></path><path d="M0 44L59.5 46C119 48 238 52 357 51.2C476 50.3 595 44.7 714 43C833 41.3 952 43.7 1071.2 49.3C1190.3 55 1309.7 64 1428.8 62.2C1548 60.3 1667 47.7 1786 41.7C1905 35.7 2024 36.3 2143 38.5C2262 40.7 2381 44.3 2440.5 46.2L2500 48L2500 0L2440.5 0C2381 0 2262 0 2143 0C2024 0 1905 0 1786 0C1667 0 1548 0 1428.8 0C1309.7 0 1190.3 0 1071.2 0C952 0 833 0 714 0C595 0 476 0 357 0C238 0 119 0 59.5 0L0 0Z" fill="#003394"></path></svg>