<svg id="visual" viewBox="0 0 540 960" width="540" height="960" xmlns="http://www.w3.org/2000/svg" xmlns:xlink="http://www.w3.org/1999/xlink" version="1.1"><rect x="0" y="0" width="540" height="960" fill="#001220"></rect><defs><linearGradient id="grad1_0" x1="0%" y1="100%" x2="100%" y2="0%"><stop offset="30%" stop-color="#7b75f9" stop-opacity="1"></stop><stop offset="70%" stop-color="#7b75f9" stop-opacity="1"></stop></linearGradient></defs><defs><linearGradient id="grad1_1" x1="0%" y1="100%" x2="100%" y2="0%"><stop offset="30%" stop-color="#7b75f9" stop-opacity="1"></stop><stop offset="70%" stop-color="#2958b0" stop-opacity="1"></stop></linearGradient></defs><defs><linearGradient id="grad1_2" x1="0%" y1="100%" x2="100%" y2="0%"><stop offset="30%" stop-color="#003665" stop-opacity="1"></stop><stop offset="70%" stop-color="#2958b0" stop-opacity="1"></stop></linearGradient></defs><defs><linearGradient id="grad1_3" x1="0%" y1="100%" x2="100%" y2="0%"><stop offset="30%" stop-color="#003665" stop-opacity="1"></stop><stop offset="70%" stop-color="#001220" stop-opacity="1"></stop></linearGradient></defs><defs><linearGradient id="grad2_0" x1="0%" y1="100%" x2="100%" y2="0%"><stop offset="30%" stop-color="#7b75f9" stop-opacity="1"></stop><stop offset="70%" stop-color="#7b75f9" stop-opacity="1"></stop></linearGradient></defs><defs><linearGradient id="grad2_1" x1="0%" y1="100%" x2="100%" y2="0%"><stop offset="30%" stop-color="#2958b0" stop-opacity="1"></stop><stop offset="70%" stop-color="#7b75f9" stop-opacity="1"></stop></linearGradient></defs><defs><linearGradient id="grad2_2" x1="0%" y1="100%" x2="100%" y2="0%"><stop offset="30%" stop-color="#2958b0" stop-opacity="1"></stop><stop offset="70%" stop-color="#003665" stop-opacity="1"></stop></linearGradient></defs><defs><linearGradient id="grad2_3" x1="0%" y1="100%" x2="100%" y2="0%"><stop offset="30%" stop-color="#001220" stop-opacity="1"></stop><stop offset="70%" stop-color="#003665" stop-opacity="1"></stop></linearGradient></defs><g transform="translate(540, 960)"><path d="M-243 0C-240.4 -32.3 -237.7 -64.5 -224.5 -93C-211.3 -121.5 -187.6 -146.1 -161.9 -161.9C-136.3 -177.8 -108.8 -184.7 -81.5 -196.8C-54.2 -208.8 -27.1 -225.9 0 -243L0 0Z" fill="#002441"></path><path d="M-182.2 0C-180.3 -24.2 -178.3 -48.4 -168.4 -69.7C-158.5 -91.1 -140.7 -109.6 -121.4 -121.4C-102.2 -133.3 -81.6 -138.6 -61.1 -147.6C-40.7 -156.6 -20.3 -169.4 0 -182.2L0 0Z" fill="#00478a"></path><path d="M-121.5 0C-120.2 -16.1 -118.9 -32.3 -112.3 -46.5C-105.7 -60.7 -93.8 -73.1 -81 -81C-68.2 -88.9 -54.4 -92.4 -40.8 -98.4C-27.1 -104.4 -13.6 -113 0 -121.5L0 0Z" fill="#5067d5"></path><path d="M-60.7 0C-60.1 -8.1 -59.4 -16.1 -56.1 -23.2C-52.8 -30.4 -46.9 -36.5 -40.5 -40.5C-34.1 -44.4 -27.2 -46.2 -20.4 -49.2C-13.6 -52.2 -6.8 -56.5 0 -60.7L0 0Z" fill="#7b75f9"></path></g><g transform="translate(0, 0)"><path d="M243 0C221.7 23.8 200.3 47.6 192.2 79.6C184 111.6 189.1 152 171.8 171.8C154.6 191.7 115 191.1 82.7 199.6C50.3 208 25.2 225.5 0 243L0 0Z" fill="#002441"></path><path d="M182.3 0C166.2 17.8 150.2 35.7 144.1 59.7C138 83.7 141.8 114 128.9 128.9C115.9 143.8 86.3 143.3 62 149.7C37.7 156 18.9 169.1 0 182.3L0 0Z" fill="#00478a"></path><path d="M121.5 0C110.8 11.9 100.2 23.8 96.1 39.8C92 55.8 94.5 76 85.9 85.9C77.3 95.8 57.5 95.6 41.3 99.8C25.2 104 12.6 112.8 0 121.5L0 0Z" fill="#5067d5"></path><path d="M60.8 0C55.4 5.9 50.1 11.9 48 19.9C46 27.9 47.3 38 43 43C38.6 47.9 28.8 47.8 20.7 49.9C12.6 52 6.3 56.4 0 60.8L0 0Z" fill="#7b75f9"></path></g></svg>